<svg width="512" height="512" viewBox="0 0 512 512" fill="none" xmlns="http://www.w3.org/2000/svg">
<path d="M256 0C114.615 0 0 114.615 0 256C0 389.201 101.73 498.639 231.733 510.863L138.216 348.888C129.287 337.581 121.952 324.958 116.548 311.357L113.454 306L114.355 305.479C108.944 289.988 106 273.338 106 256C106 173.157 173.157 106 256 106C338.843 106 406 173.157 406 256C406 305.213 382.3 348.891 345.69 376.242L398.912 468.427C467.132 422.441 512 344.46 512 256C512 114.615 397.385 0 256 0Z" fill="#FF6700"/>
</svg>
